<?xml version="1.0" encoding="utf-8"?>
<!-- Generator: Adobe Illustrator 21.1.0, SVG Export Plug-In . SVG Version: 6.00 Build 0)  -->
<svg version="1.1" id="Слой_1" xmlns="http://www.w3.org/2000/svg" xmlns:xlink="http://www.w3.org/1999/xlink" x="0px" y="0px"
	 viewBox="0 0 37.7 43.9" style="enable-background:new 0 0 37.7 43.9;" xml:space="preserve">
<style type="text/css">
	.st0{fill:url(#SVGID_1_);}
	.st1{fill:url(#SVGID_2_);}
	.st2{fill:url(#SVGID_3_);}
</style>
<path d="M6.9,17.4c0-1.4-0.9-2.3-2.5-2.5l-1.7-0.2c-0.7-0.1-1.1-0.4-1.2-1c0-0.2-0.1-0.3-0.3-0.3H0.5c-0.1,0-0.2,0.1-0.2,0.3
	c0,1.4,0.8,2.1,2.5,2.3l1.5,0.2c0.6,0,0.9,0.1,1.1,0.3c0.2,0.2,0.3,0.5,0.3,1v1.1H0.5c-0.1,0-0.2,0.1-0.2,0.2v0.8
	c0,0.1,0.1,0.2,0.2,0.2h6.1c0.2,0,0.3-0.1,0.3-0.2V17.4z"/>
<path d="M3.1,8.5h3.6c0.2,0,0.3-0.1,0.3-0.3V7.4c0-0.1-0.1-0.2-0.3-0.2h-4C1,7.2,0.2,8,0.2,9.5c0,0.8,0.3,1.4,0.8,2.1l-0.6,0.1
	c-0.1,0.1-0.1,0.1-0.1,0.2v0.6c0,0.2,0.1,0.3,0.2,0.3h6.2c0.2,0,0.3-0.1,0.3-0.3v-0.8c0-0.2-0.1-0.3-0.3-0.3H2.4
	C1.8,11,1.5,10.4,1.5,9.7C1.5,8.9,2,8.5,3.1,8.5z"/>
<path d="M3.3,6.3c2,0,3.1-1.1,3.1-3.3V1.4h2v3.8c0,0.2,0.1,0.2,0.3,0.3h0.7c0.2,0,0.3-0.1,0.3-0.3V0.3C9.7,0.1,9.6,0,9.4,0H3.1
	C1.2,0,0.3,0.9,0.3,2.6v0.2C0.3,5.1,1.3,6.3,3.3,6.3z M5.1,3c0,1.3-0.6,1.9-1.8,1.9C2.1,4.9,1.5,4.3,1.5,3V2.6
	c0-0.8,0.5-1.3,1.4-1.3h2.2L5.1,3L5.1,3z"/>
<path d="M4.3,38.7v-3h2.4c0.2,0,0.3-0.1,0.3-0.3v-0.8c0-0.1-0.1-0.2-0.3-0.2H0.5c-0.1,0-0.2,0.1-0.2,0.2v0.8c0,0.2,0.1,0.3,0.2,0.3
	h2.5v3H0.5c-0.1,0-0.2,0.1-0.2,0.3v0.8c0,0.2,0.1,0.3,0.2,0.3h6.1c0.2,0,0.3-0.1,0.3-0.3V39c0-0.2-0.1-0.3-0.3-0.3H4.3z"/>
<path d="M6.9,32.8V32c0-0.2-0.1-0.3-0.3-0.3H2.4c-0.6-0.5-0.9-1.1-0.9-1.8c0-0.8,0.5-1.2,1.6-1.2h3.6c0.2,0,0.3-0.1,0.3-0.2v-0.8
	c0-0.2-0.1-0.3-0.3-0.3h-4c-1.6,0-2.5,0.8-2.5,2.3c0,0.8,0.3,1.5,0.8,2.1L0.5,32c-0.1,0.1-0.1,0.1-0.1,0.2v0.6
	c0,0.1,0.1,0.2,0.2,0.2h6.2C6.8,33,6.9,32.9,6.9,32.8z"/>
<path d="M9.4,33c0.2,0,0.3-0.1,0.3-0.3v-5c0-0.2-0.1-0.3-0.3-0.3H8.7c-0.2,0-0.3,0.1-0.3,0.3v5c0,0.2,0.1,0.3,0.3,0.3H9.4z"/>
<path d="M5.7,24.6c-0.2,0.1-0.4,0.2-0.8,0.2H4.7l-0.1-1.4C4.5,21.8,3.8,21,2.4,21c-1.5,0-2.2,0.8-2.2,2.4c0,0.6,0.1,1.1,0.5,1.7
	l-0.2,0.1c-0.1,0.1-0.1,0.2-0.1,0.2v0.5c0,0.1,0.1,0.2,0.2,0.2h4.3c1.5,0,2.3-0.8,2.3-2.5c0-0.7-0.1-1.4-0.3-1.9
	c-0.1-0.1-0.2-0.1-0.2-0.1H5.9c-0.1,0-0.2,0.1-0.2,0.1c0,0.1,0,0.2,0,0.2C5.9,22.4,6,23,6,23.6C5.9,24.1,5.8,24.4,5.7,24.6z
	 M1.4,23.4c0-0.7,0.3-1.1,1-1.1c0.7,0,1,0.3,1.1,1l0.1,1.4l-1.8,0C1.6,24.3,1.4,23.9,1.4,23.4z"/>
<path d="M6.9,44L6.9,44l0-0.3l-1-0.4l1-0.4v-0.3H5.4v0.3h1.1l-0.9,0.3v0.2l0.9,0.4l-1,0l0,0V44l0,0H6.9z"/>
<path d="M6.9,42.4L6.9,42.4l0-1H6.7v0.4H5.4l0,0V42h1.3v0.4l0,0H6.9z"/>
<linearGradient id="SVGID_1_" gradientUnits="userSpaceOnUse" x1="7.0145" y1="24.7887" x2="26.2919" y2="24.7887" gradientTransform="matrix(-6.123234e-17 1 1 6.123234e-17 -2.4206 3.2044)">
	<stop  offset="0" style="stop-color:#D89141"/>
	<stop  offset="0.1" style="stop-color:#FBB034"/>
	<stop  offset="0.3" style="stop-color:#FFC233"/>
	<stop  offset="0.4893" style="stop-color:#FFDD2F"/>
	<stop  offset="0.65" style="stop-color:#FFF32A"/>
	<stop  offset="0.737" style="stop-color:#FFE42F"/>
	<stop  offset="0.8871" style="stop-color:#F2C837"/>
	<stop  offset="1" style="stop-color:#E6B13B"/>
</linearGradient>
<path class="st0" d="M32.2,19.9c0,5.3-4.4,9.6-9.8,9.6c-5.4,0-9.8-4.3-9.8-9.6c0-5.3,4.4-9.6,9.8-9.6C27.8,10.2,32.2,14.5,32.2,19.9
	z"/>
<path d="M28.9,12.6c0.4,4.7,0.4,9.8,0,14.4c2-1.8,3.3-4.3,3.3-7.2S30.9,14.4,28.9,12.6z"/>
<path d="M15.9,27.2c-0.4-4.5-0.4-9.9,0-14.6c-2.1,1.8-3.4,4.4-3.4,7.3C12.5,22.8,13.9,25.4,15.9,27.2z"/>
<path d="M24.9,10.5c0.1,6.3,0.1,12.4,0,18.7c-0.8,0.2-1.6,0.3-2.5,0.3c-0.7,0-1.5-0.1-2.2-0.2c-0.2-6.3-0.1-12.6,0-18.8
	c0.7-0.1,1.4-0.2,2.2-0.2C23.2,10.2,24.1,10.3,24.9,10.5z"/>
<radialGradient id="SVGID_2_" cx="1.2912" cy="34.3417" r="0.9998" gradientTransform="matrix(-5.858331e-16 9.5674 9.7636 5.978456e-16 -307.6279 12.1151)" gradientUnits="userSpaceOnUse">
	<stop  offset="0" style="stop-color:#FFFFFF;stop-opacity:0.7"/>
	<stop  offset="1" style="stop-color:#FFFFFF;stop-opacity:0"/>
</radialGradient>
<path class="st1" d="M27.7,34c-5.4,0-9.8-4.3-9.8-9.6c0-5.3,4.4-9.6,9.8-9.6c5.4,0,9.8,4.3,9.8,9.6S33.1,34,27.7,34z"/>
<radialGradient id="SVGID_3_" cx="1.2938" cy="34.3368" r="0.9993" gradientTransform="matrix(-5.906306e-16 9.6457 9.8435 6.027405e-16 -315.6264 7.3778)" gradientUnits="userSpaceOnUse">
	<stop  offset="0.9" style="stop-color:#FFFFFF;stop-opacity:0"/>
	<stop  offset="1" style="stop-color:#FFFFFF;stop-opacity:0.3"/>
</radialGradient>
<path class="st2" d="M32.2,19.9c0,5.3-4.4,9.6-9.8,9.6c-5.4,0-9.8-4.3-9.8-9.6c0-5.3,4.4-9.6,9.8-9.6C27.8,10.2,32.2,14.5,32.2,19.9
	z"/>
</svg>
