<?xml version="1.0" encoding="utf-8"?>
<!-- Generator: Adobe Illustrator 21.1.0, SVG Export Plug-In . SVG Version: 6.00 Build 0)  -->
<svg version="1.1" id="Слой_1" xmlns="http://www.w3.org/2000/svg" xmlns:xlink="http://www.w3.org/1999/xlink" x="0px" y="0px"
	 viewBox="0 0 16 90.2" style="enable-background:new 0 0 16 90.2;" xml:space="preserve">
<style type="text/css">
	.st0{fill:#00985F;}
</style>
<path class="st0" d="M16,9.3H7.7c-0.4,0-0.7-0.3-0.7-0.7v-1c0,0,0-0.1-0.1-0.1H0c0,0.2,0,0.5,0,0.7c0,4.4,3.6,7.9,8,7.9
	C12.1,16.3,15.5,13.3,16,9.3z M3.6,9.2c0-0.6,0.5-1,1-1c0.6,0,1,0.5,1,1c0,0.6-0.5,1-1,1C4.1,10.2,3.6,9.7,3.6,9.2z M3.6,11.5
	c0-0.6,0.5-1,1-1c0.6,0,1,0.5,1,1c0,0.6-0.5,1-1,1S3.6,12,3.6,11.5z M3.6,13.8c0-0.6,0.5-1,1-1c0.6,0,1,0.5,1,1c0,0.6-0.5,1-1,1
	S3.6,14.4,3.6,13.8z"/>
<path class="st0" d="M16,8.4c0-4.4-3.6-7.9-8-7.9c-3.9,0-7.1,2.7-7.8,6.2h7.2C7.7,6.7,8,7,8,7.3v0.3v0.7c0,0,0,0.1,0.1,0.1H16z
	 M9.4,6.8c0-0.6,0.5-1,1-1c0.6,0,1,0.5,1,1c0,0.6-0.5,1-1,1S9.4,7.4,9.4,6.8z"/>
<path class="st0" d="M11.6,87.6h-3v-4h3v-2h-8v2h3.3v4H3.6v2h8V87.6z"/>
<path class="st0" d="M10.7,54.7c0.7-0.3,1.1-1,1.1-1.6c0-0.7-0.4-1.3-1.1-1.6l-7.1-3.2v2.1L5.3,51v4.1l-1.7,0.7v2.1L10.7,54.7z
	 M6.9,51.6l2.9,1.2c0.1,0,0.1,0.1,0.1,0.1c0,0,0,0.1-0.1,0.1l-2.9,1.2V51.6z"/>
<path class="st0" d="M13.1,31.1c0-0.9-0.5-1.5-1.5-2l-6-2.6l6-2.6c1-0.4,1.5-1,1.5-2c0-0.9-0.6-1.8-2-1.8H3.7v2h7.2l-6,2.6
	c-0.8,0.3-1.4,0.9-1.4,1.7c0,0.8,0.5,1.4,1.4,1.7l6,2.6H3.6v2h7.4C12.4,32.9,13.1,32,13.1,31.1z"/>
<path class="st0" d="M5.3,36.4c0-0.1,0.1-0.2,0.2-0.2h1.4v4.9h1.6v-4.9h1.2c0.1,0,0.2,0.1,0.2,0.2v4.9h1.7v-5.9
	c0-0.7-0.6-1.2-1.2-1.2H4.9c-0.6,0-1.2,0.5-1.2,1.2v5.9h1.7L5.3,36.4L5.3,36.4z"/>
<path class="st0" d="M3.6,44.6h6.1c0.1,0,0.2,0.1,0.2,0.2v4.9h1.7v-5.9c0-0.7-0.6-1.2-1.2-1.2H3.7L3.6,44.6L3.6,44.6z"/>
<path class="st0" d="M7.6,80.3c2.8,0,4.1-1.2,4.1-4.2v-0.7c0-3-1.3-4.2-4.1-4.2c-2.7,0-4.1,1.2-4.1,4.2v0.7
	C3.6,79.1,4.9,80.3,7.6,80.3z M5.2,76.1v-0.7c0-1.6,0.8-2.3,2.4-2.3c1.6,0,2.4,0.6,2.4,2.3v0.7c0,1.7-0.8,2.3-2.4,2.3
	C6,78.4,5.2,77.8,5.2,76.1z"/>
<path class="st0" d="M12.9,65.8v-3.9c0-2.9-1.5-4.1-4.1-4.1c-0.4,0-0.8,0-1.1,0.1c-1.8,0.3-3,1.4-3,4.1v0.9h-1v2h1v0.8
	c0,2.7,1.1,3.8,3,4.1c0.3,0,0.7,0.1,1.1,0.1C11.4,69.9,12.9,68.6,12.9,65.8z M6.4,62.8v-0.9c0-1.4,0.5-1.8,1.3-2.1
	c0.3-0.1,0.7-0.1,1.1-0.1c1.7,0,2.4,0.8,2.4,1.9v1.2L6.4,62.8L6.4,62.8z M7.6,67.8c-0.8-0.3-1.3-0.8-1.3-2.1v-0.9h4.9V66
	c0,1.1-0.7,1.9-2.4,1.9C8.3,67.9,8,67.9,7.6,67.8z"/>
</svg>
