<?xml version="1.0" encoding="utf-8"?>
<!-- Generator: Adobe Illustrator 21.1.0, SVG Export Plug-In . SVG Version: 6.00 Build 0)  -->
<svg version="1.1" id="Слой_1" xmlns="http://www.w3.org/2000/svg" xmlns:xlink="http://www.w3.org/1999/xlink" x="0px" y="0px"
	 viewBox="0 0 16 64.2" style="enable-background:new 0 0 16 64.2;" xml:space="preserve">
<style type="text/css">
	.st0{fill:#E30613;}
</style>
<path class="st0" d="M16.2,5.9c0-1.2-1.1-2.6-3.1-3.8c-2-1.2-4.5-1.9-6.6-1.9C3.3,0.3,0.2,2,0.2,5.9c0,3.9,3.2,5.7,6.3,5.7
	c2.1,0,4.6-0.7,6.6-1.9C15,8.5,16.2,7.1,16.2,5.9z M11.5,36.7v4H1v4.3h10.4v4h3.9V36.7H11.5L11.5,36.7z M11.5,58v6.3h3.9V58
	c0-5.7-2.9-8.8-7.1-8.8C3.9,49.2,1,52.2,1,58v6.3h3.9V58c0-2.7,1-4.4,3.3-4.4C10.5,53.6,11.5,55.3,11.5,58z M15.3,28l-8.5-2.3
	l8.5-2.3v-7.5H1v4.3h11.6L1,23.3v4.9l11.6,3.1H1v4.3h14.3V28z"/>
</svg>
