<?xml version="1.0" encoding="utf-8"?>
<!-- Generator: Adobe Illustrator 21.1.0, SVG Export Plug-In . SVG Version: 6.00 Build 0)  -->
<svg version="1.1" id="Слой_1" xmlns="http://www.w3.org/2000/svg" xmlns:xlink="http://www.w3.org/1999/xlink" x="0px" y="0px"
	 viewBox="0 0 31.3 68.4" style="enable-background:new 0 0 31.3 68.4;" xml:space="preserve">
<style type="text/css">
	.st0{fill:#2D3540;}
	.st1{fill:#FF8C00;}
</style>
<path class="st0" d="M13.5,33.6v1.1h-2.5v0.8l2.5,1.4V38l-2.9-1.7h0l-3.1,1.8v-1.2l2.6-1.4v-0.8H7.5v-1.1L13.5,33.6L13.5,33.6
	L13.5,33.6z M11.9,40.5c0,1.3-1,2.3-2.3,2.3c-1.3,0-2.3-1-2.3-2.3c0-1.3,0.9-2.3,2.3-2.3C11,38.2,11.9,39.2,11.9,40.5z M11.8,43.7v1
	H8.4V46h3.4v1H8.4v1.3h3.4v1H7.5v-5.7L11.8,43.7L11.8,43.7z M11.9,52.4c0,1.2-0.9,1.9-2,1.9c-0.1,0-0.3,0-0.4,0v-2.9
	c-0.8,0.1-1.2,0.6-1.2,1.3c0,0.4,0.2,0.9,0.5,1.2L8,54.2c-0.4-0.4-0.6-1.1-0.6-1.7c0-1.4,1-2.3,2.3-2.3C11,50.2,11.9,51.1,11.9,52.4
	z M8.4,54.7c0.1,0.5,0.5,0.9,2.1,0.9h1.4v3.1H7.5v-1.1H11v-1h-0.5c-1.9,0-3-0.5-3-1.9H8.4L8.4,54.7z M11.9,61.7c0,1.2-0.9,1.9-2,1.9
	c-0.1,0-0.3,0-0.4,0v-2.9c-0.8,0.1-1.2,0.6-1.2,1.3c0,0.4,0.2,0.9,0.5,1.2L8,63.6c-0.4-0.4-0.6-1.1-0.6-1.7c0-1.4,1-2.3,2.3-2.3
	C11,59.6,11.9,60.5,11.9,61.7z M11.8,64.5v1.1h-1.7v0.5l1.7,1v1.2l-2.1-1.4h0l-2.2,1.5v-1.2l1.8-1.1v-0.6H7.5v-1.1L11.8,64.5
	L11.8,64.5L11.8,64.5z M8.3,40.5c0,0.7,0.5,1.3,1.4,1.3c0.8,0,1.4-0.6,1.4-1.3c0-0.7-0.5-1.3-1.4-1.3C8.9,39.2,8.3,39.8,8.3,40.5z
	 M10.2,53.2c0.6,0,0.9-0.4,0.9-0.9c0-0.5-0.4-0.9-0.9-1V53.2z M10.2,62.6c0.6,0,0.9-0.4,0.9-0.9c0-0.5-0.4-0.9-0.9-1V62.6z"/>
<path class="st1" d="M26.7,48.4H16.4c0,0-0.1,0-0.1,0c0,0-0.1,0-0.1-0.1s0-0.1-0.1-0.1c0,0,0-0.1,0-0.1v-2c0,0,0-0.1,0-0.1
	c0,0,0-0.1,0.1-0.1c0,0,0.1,0,0.1-0.1c0,0,0.1,0,0.1,0h10.2c0,0,0.1,0,0.1,0c0,0,0.1,0,0.1,0.1c0,0,0,0.1,0.1,0.1s0,0.1,0,0.1v2
	c0,0,0,0.1,0,0.1s0,0.1-0.1,0.1s-0.1,0-0.1,0.1C26.8,48.4,26.7,48.4,26.7,48.4z M27,64.4c0,0.1,0,0.2-0.1,0.3
	c-0.1,0.1-0.2,0.1-0.2,0l-10.3-3.4c-0.1,0-0.1-0.1-0.1-0.1c0,0-0.1-0.1-0.1-0.2v-1.8c0-0.1,0.1-0.2,0.2-0.3l6-2l-6-2
	c-0.1,0-0.1-0.1-0.1-0.1c0,0-0.1-0.1-0.1-0.2v-1.8c0-0.1,0.1-0.2,0.2-0.3l10.3-3.4c0.1,0,0.2,0,0.2,0c0.1,0,0.1,0.1,0.1,0.2v2.3
	c0,0.1-0.1,0.2-0.2,0.3l-6.1,1.8l6.1,2c0.1,0,0.1,0.1,0.1,0.1c0,0,0.1,0.1,0.1,0.2v1.6c0,0.1-0.1,0.2-0.2,0.3l-6.1,2l6.1,1.8
	c0.1,0,0.1,0,0.1,0.1c0,0,0.1,0.1,0.1,0.2V64.4L27,64.4z M27,67.8c0,0.1-0.1,0.3-0.3,0.3H16.4c0,0-0.1,0-0.1,0c0,0-0.1,0-0.1-0.1
	c0,0,0-0.1-0.1-0.1c0,0,0-0.1,0-0.1v-2c0,0,0-0.1,0-0.1c0,0,0-0.1,0.1-0.1c0,0,0.1,0,0.1-0.1c0,0,0.1,0,0.1,0h10.2c0,0,0.1,0,0.1,0
	c0,0,0.1,0,0.1,0.1c0,0,0,0.1,0.1,0.1c0,0,0,0.1,0,0.1V67.8z M16.5,44.6c-0.1,0.1-0.3,0-0.3-0.2v-2.5c0,0,0-0.1,0-0.1
	c0,0,0.1-0.1,0.1-0.1l0.5-0.4c-0.6-0.9-0.9-1.9-0.9-3c0-3.1,2.5-5.5,5.7-5.5c3.1,0,5.7,2.5,5.7,5.5c0,3.1-2.5,5.5-5.7,5.5
	c-1.1,0-2.2-0.3-3.1-0.9L16.5,44.6L16.5,44.6z M11.6,23.7c-0.2,0.5-1,0.7-1.3,0.8c-0.6,0.1-0.9-0.1-0.9-0.3c0-0.2,0.2-0.5,0.7-0.8
	c0.5-0.3,1-0.4,1.3-0.3C11.6,23.2,11.7,23.4,11.6,23.7L11.6,23.7z M9.3,20.7c0,0.3-0.1,0.7-0.4,1c-0.5,0.6-1.1,0.8-1.6,0.5
	C7,22,6.9,21.7,6.9,21.3c0-0.3,0.1-0.7,0.3-0.9C7.7,19.8,8.5,19.7,9,20C9.2,20.2,9.3,20.4,9.3,20.7z M3.4,13.7
	c0-7.5,6.2-13.7,14-13.7c7.7,0,14,6.1,14,13.7c0,7.5-6.2,13.7-14,13.7c-2.6,0-5.1-0.7-7.2-1.9c-0.1,0,0-0.1,0-0.2
	c3.4-0.5,5.3-2.5,5.9-5.5c0-0.3,0.2-0.3,0.2,0c0.1,0.9,0.1,2.2-0.1,2.9c0.3,0,0.7,0.1,1.1,0.1c5.1,0,9.2-4.1,9.2-9c0-5-4.1-9-9.2-9
	c-5.1,0-9.2,4.1-9.2,9v0.4C9,14,9.8,14,10.6,14c0.6,0,0.6,0.1,0.2,0.4c-2.2,1.3-4.2,3-5,6.5c-0.6,2.9-1.4,5.7-5.4,8.8
	C0.1,30-0.2,29.6,0,29.2c2.8-3.1,3.8-6,3.8-8.6C3.8,17.7,3.4,15.7,3.4,13.7L3.4,13.7z M18.8,39.6l1.4-1.1c0.1-0.1,0.4,0,0.4,0.2V41
	c0.3,0.1,0.7,0.2,1.1,0.2c1.7,0,3.1-1.2,3.1-2.9c0-1.7-1.5-2.9-3.1-2.9c-1.7,0-3.1,1.2-3.1,2.9C18.4,38.7,18.6,39.2,18.8,39.6z"/>
</svg>
