<?xml version="1.0" encoding="utf-8"?>
<!-- Generator: Adobe Illustrator 21.1.0, SVG Export Plug-In . SVG Version: 6.00 Build 0)  -->
<svg version="1.1" id="Слой_1" xmlns="http://www.w3.org/2000/svg" xmlns:xlink="http://www.w3.org/1999/xlink" x="0px" y="0px"
	 viewBox="0 0 22.8 53.3" style="enable-background:new 0 0 22.8 53.3;" xml:space="preserve">
<style type="text/css">
	.st0{fill:#141414;}
</style>
<path class="st0" d="M14.3,0.3h-2.8l0.8,7.7h3L14.3,0.3z M11.3,2.8H1.7v2.8h9.9L11.3,2.8z M15.5,9.1H1.7v3h14.3L15.5,9.1z M16,12.6
	h-3.2l0.5,4.3h3.3L16,12.6z M10.4,12.6H7.2l0.2,2.8h3.3L10.4,12.6z M4.9,12.6H1.7v4.3H5L4.9,12.6z M18.1,28H1.7v3.9h17L18.1,28z
	 M18.8,32.6H15l0.6,5.7h4L18.8,32.6z M12.1,32.6H8.3l0.2,3.7h4L12.1,32.6z M5.5,32.6H1.7v5.7h4L5.5,32.6z M16.8,18H1.7v3.4h15.6
	L16.8,18z M5.1,22.1H1.7V27h3.6L5.1,22.1z M19.8,51c1.1-1.2,1.6-3,1.3-5h-4.2c0,0.8-0.2,1.4-0.8,1.7c-0.9,0.5-2.3,0-3.6-1.1
	c-2-1.7-6.1-6.3-6.1-6.3l0.2,6.5c3.8,4,6.2,5.4,9.1,5.7C17.2,52.7,18.7,52.2,19.8,51z M1.7,52.8h4.4L5.7,39.6L1.7,52.8z M5.7,39.6
	l-4,0v13.3L5.7,39.6z M21,45.3c-0.8-3.9-3.6-5.7-8.2-5.5l0.4,4.1c2.6-0.2,3.2,0.6,3.5,1.4L21,45.3z"/>
</svg>
